<?xml version="1.0" encoding="UTF-8" standalone="no"?>
<svg
   xmlns:dc="http://purl.org/dc/elements/1.1/"
   xmlns:cc="http://creativecommons.org/ns#"
   xmlns:rdf="http://www.w3.org/1999/02/22-rdf-syntax-ns#"
   xmlns:svg="http://www.w3.org/2000/svg"
   xmlns="http://www.w3.org/2000/svg"
   xmlns:sodipodi="http://sodipodi.sourceforge.net/DTD/sodipodi-0.dtd"
   xmlns:inkscape="http://www.inkscape.org/namespaces/inkscape"
   sodipodi:docname="bp.svg"
   inkscape:version="1.0 (4035a4fb49, 2020-05-01)"
   id="svg8"
   version="1.1"
   viewBox="0 0 11.90625 11.906263"
   height="45.00005"
   width="45">
  <defs
     id="defs2" />
  <sodipodi:namedview
     inkscape:window-maximized="1"
     inkscape:window-y="-8"
     inkscape:window-x="-8"
     inkscape:window-height="706"
     inkscape:window-width="1366"
     fit-margin-bottom="0"
     fit-margin-right="0"
     fit-margin-left="0"
     fit-margin-top="0"
     units="px"
     showgrid="false"
     inkscape:document-rotation="0"
     inkscape:current-layer="layer1"
     inkscape:document-units="mm"
     inkscape:cy="57.739413"
     inkscape:cx="22.445754"
     inkscape:zoom="0.96102398"
     inkscape:pageshadow="2"
     inkscape:pageopacity="0.0"
     borderopacity="1.0"
     bordercolor="#666666"
     pagecolor="#ffffff"
     id="base" />
  <metadata
     id="metadata5">
    <rdf:RDF>
      <cc:Work
         rdf:about="">
        <dc:format>image/svg+xml</dc:format>
        <dc:type
           rdf:resource="http://purl.org/dc/dcmitype/StillImage" />
        <dc:title></dc:title>
      </cc:Work>
    </rdf:RDF>
  </metadata>
  <g
     transform="translate(-99.894561,-62.442318)"
     id="layer1"
     inkscape:groupmode="layer"
     inkscape:label="Layer 1">
    <path
       id="path2458"
       d="m 102.96242,73.567108 c 0,-0.138768 0.28398,-0.447638 0.63105,-0.686379 0.34708,-0.23874 0.73408,-0.644451 0.86,-0.90158 0.21373,-0.436422 0.33326,-0.467021 1.79775,-0.460208 l 1.56878,0.0073 0.56648,0.761958 c 0.31156,0.419077 0.70689,0.761958 0.8785,0.761958 0.17422,0 0.31202,0.16987 0.31202,0.384629 0,0.368602 -0.1378,0.384628 -3.30728,0.384628 -2.59132,0 -3.3073,-0.05462 -3.3073,-0.252304 z m 2.22209,-2.389562 c 0.59686,-0.03885 1.57354,-0.03885 2.17041,0 0.59686,0.03885 0.10852,0.07064 -1.0852,0.07064 -1.19373,0 -1.68207,-0.03178 -1.08521,-0.07064 z m -0.15258,-0.483238 c 0.002,-0.132216 0.13669,-0.709676 0.30076,-1.283244 0.27287,-0.953888 0.26825,-1.064105 -0.0541,-1.292004 -0.30064,-0.212533 -0.16229,-0.250053 0.94122,-0.255271 1.21043,-0.0057 1.27821,0.01691 1.05343,0.351776 -0.22852,0.340453 -0.0787,1.345936 0.35848,2.405903 0.11134,0.269956 -0.0595,0.313232 -1.23651,0.313232 -0.95607,0 -1.36497,-0.0721 -1.36325,-0.240392 z m -0.57217,-3.269342 c 0.0466,-0.132216 0.33389,-0.267814 0.63828,-0.30133 0.49245,-0.05422 0.51921,-0.09279 0.24275,-0.349997 -0.50434,-0.469226 -0.59816,-1.177455 -0.22598,-1.705922 0.46034,-0.653661 1.80402,-0.684285 2.28006,-0.05196 0.43891,0.582994 0.40395,1.226963 -0.0916,1.688037 l -0.41341,0.384628 h 0.62012 c 0.41341,0 0.62012,0.09616 0.62012,0.288471 0,0.235247 -0.34643,0.288471 -1.87758,0.288471 -1.40951,0 -1.85643,-0.05993 -1.79273,-0.240392 z m 2.06834,-0.463915 c -0.14212,-0.05335 -0.37466,-0.05335 -0.51677,0 -0.14211,0.05335 -0.0259,0.097 0.25839,0.097 0.28421,0 0.40049,-0.04365 0.25838,-0.097 z m -0.78224,-1.959269 c -0.11648,-0.114071 -0.50968,0.175032 -0.50968,0.374739 0,0.103701 0.13015,0.07696 0.28922,-0.05943 0.15906,-0.136385 0.25827,-0.278275 0.22046,-0.315311 z"
       style="fill:#000000;stroke-width:0.19938" />
  </g>
</svg>
