<?xml version="1.0" encoding="UTF-8" standalone="no"?>
<svg
   xmlns:dc="http://purl.org/dc/elements/1.1/"
   xmlns:cc="http://creativecommons.org/ns#"
   xmlns:rdf="http://www.w3.org/1999/02/22-rdf-syntax-ns#"
   xmlns:svg="http://www.w3.org/2000/svg"
   xmlns="http://www.w3.org/2000/svg"
   xmlns:sodipodi="http://sodipodi.sourceforge.net/DTD/sodipodi-0.dtd"
   xmlns:inkscape="http://www.inkscape.org/namespaces/inkscape"
   width="48"
   height="48.00005"
   viewBox="0 0 12.7 12.700013"
   version="1.1"
   id="svg8"
   inkscape:version="1.0 (4035a4fb49, 2020-05-01)"
   sodipodi:docname="piece1.svg">
  <defs
     id="defs2" />
  <sodipodi:namedview
     id="base"
     pagecolor="#ffffff"
     bordercolor="#666666"
     borderopacity="1.0"
     inkscape:pageopacity="0.0"
     inkscape:pageshadow="2"
     inkscape:zoom="0.96102398"
     inkscape:cx="22.445754"
     inkscape:cy="57.739413"
     inkscape:document-units="mm"
     inkscape:current-layer="layer1"
     inkscape:document-rotation="0"
     showgrid="false"
     units="px"
     fit-margin-top="0"
     fit-margin-left="0"
     fit-margin-right="0"
     fit-margin-bottom="0"
     inkscape:window-width="1366"
     inkscape:window-height="706"
     inkscape:window-x="-8"
     inkscape:window-y="-8"
     inkscape:window-maximized="1" />
  <metadata
     id="metadata5">
    <rdf:RDF>
      <cc:Work
         rdf:about="">
        <dc:format>image/svg+xml</dc:format>
        <dc:type
           rdf:resource="http://purl.org/dc/dcmitype/StillImage" />
        <dc:title></dc:title>
      </cc:Work>
    </rdf:RDF>
  </metadata>
  <g
     inkscape:label="Layer 1"
     inkscape:groupmode="layer"
     id="layer1"
     transform="translate(-99.894561,-62.442318)">
    <path
       style="fill:#000000;stroke-width:0.206717"
       d="m 103.07027,74.251687 c 0,-0.169931 0.12238,-0.3537 0.27197,-0.408378 0.14958,-0.05468 0.50501,-0.505777 0.78984,-1.002443 l 0.51787,-0.90303 h 1.85227 c 1.80412,0 1.86035,0.01442 2.16303,0.554826 0.17091,0.305155 0.55255,0.816339 0.84809,1.135966 0.29552,0.319626 0.4861,0.660088 0.42349,0.756581 -0.0626,0.09649 -1.63319,0.175443 -3.4902,0.175443 -2.89076,0 -3.37636,-0.04443 -3.37636,-0.308965 z m 2.17099,-2.6647 c 0.66983,-0.04004 1.76592,-0.04004 2.43575,0 0.66983,0.04005 0.12179,0.0728 -1.21787,0.0728 -1.33967,0 -1.88772,-0.03275 -1.21788,-0.0728 z m -1.32378,-0.657926 c -0.82275,-0.783714 -0.5702,-1.454428 1.08372,-2.878123 1.08102,-0.930547 1.41799,-1.330163 1.19144,-1.412971 -0.29785,-0.108878 -1.95203,0.556076 -2.74156,1.102073 -0.48378,0.33456 -0.68485,0.09857 -0.37933,-0.445224 0.23517,-0.41857 0.21474,-0.433844 -0.40644,-0.303881 -0.41566,0.08696 -0.65407,0.05745 -0.65407,-0.08095 0,-0.252151 0.31941,-0.535277 1.85668,-1.645823 0.96695,-0.698539 1.08573,-0.858473 0.89271,-1.202018 -0.17634,-0.31387 -0.15502,-0.39627 0.10252,-0.39627 0.17884,0 0.33622,0.158882 0.34973,0.353071 0.0234,0.336258 0.0292,0.336258 0.12143,0 0.0532,-0.194189 0.23926,-0.353071 0.41331,-0.353071 0.22487,0 0.27943,0.131376 0.18854,0.453949 -0.095,0.336975 -0.0318,0.297982 0.24521,-0.151317 0.37115,-0.602091 0.37352,-0.602713 0.45057,-0.11861 0.0584,0.367203 0.12223,0.417658 0.25984,0.205555 0.15032,-0.231679 0.28659,-0.207378 0.77504,0.138211 0.32596,0.230623 0.73562,0.662444 0.91036,0.959603 0.28241,0.480256 0.28241,0.5618 0,0.73389 -0.21138,0.128809 -0.22911,0.194635 -0.0529,0.196691 0.41201,0.0048 0.31132,0.605414 -0.10591,0.631757 -0.35301,0.02229 -0.35301,0.02779 0,0.115673 0.53674,0.133609 0.45553,0.663777 -0.1059,0.691348 -0.35863,0.0176 -0.38483,0.04624 -0.1059,0.115672 0.46074,0.114693 0.49207,0.667944 0.0379,0.667944 -0.29236,0 -0.28921,0.04156 0.0259,0.341762 0.33718,0.321178 0.33557,0.349514 -0.0265,0.470492 -0.34675,0.115863 -0.33876,0.140316 0.08,0.244615 0.55751,0.138875 0.61126,0.49123 0.0946,0.619853 -0.29237,0.07277 -0.27478,0.09721 0.0832,0.11567 0.56642,0.02921 0.82246,0.569516 0.32862,0.693504 -0.26292,0.06601 -0.2348,0.09637 0.10514,0.113516 0.25523,0.01288 0.52296,0.114195 0.59496,0.22516 0.0846,0.130413 -0.80971,0.201755 -2.52915,0.201755 -2.37765,0 -2.70503,-0.04284 -3.08366,-0.40351 z m 3.17058,-5.34651 c 0,-0.110965 -0.0924,-0.06557 -0.20531,0.100878 -0.11293,0.166447 -0.20533,0.393422 -0.20533,0.504387 0,0.110965 0.0924,0.06557 0.20533,-0.100878 0.11292,-0.166447 0.20531,-0.393421 0.20531,-0.504387 z m -2.25709,-0.521967 c -0.28124,-0.267895 -0.59291,0.09907 -0.37257,0.438669 0.10247,0.157942 0.20676,0.157942 0.37257,0 0.16581,-0.157942 0.16581,-0.280726 0,-0.438669 z"
       id="path2442" />
  </g>
</svg>
