<?xml version="1.0" encoding="UTF-8" standalone="no"?>
<svg
   xmlns:dc="http://purl.org/dc/elements/1.1/"
   xmlns:cc="http://creativecommons.org/ns#"
   xmlns:rdf="http://www.w3.org/1999/02/22-rdf-syntax-ns#"
   xmlns:svg="http://www.w3.org/2000/svg"
   xmlns="http://www.w3.org/2000/svg"
   xmlns:sodipodi="http://sodipodi.sourceforge.net/DTD/sodipodi-0.dtd"
   xmlns:inkscape="http://www.inkscape.org/namespaces/inkscape"
   width="48"
   height="48.00005"
   viewBox="0 0 12.7 12.700013"
   version="1.1"
   id="svg8"
   inkscape:version="1.0 (4035a4fb49, 2020-05-01)"
   sodipodi:docname="piece4.svg">
  <defs
     id="defs2" />
  <sodipodi:namedview
     id="base"
     pagecolor="#ffffff"
     bordercolor="#666666"
     borderopacity="1.0"
     inkscape:pageopacity="0.0"
     inkscape:pageshadow="2"
     inkscape:zoom="0.96102398"
     inkscape:cx="22.445754"
     inkscape:cy="57.739413"
     inkscape:document-units="mm"
     inkscape:current-layer="layer1"
     inkscape:document-rotation="0"
     showgrid="false"
     units="in"
     fit-margin-top="0"
     fit-margin-left="0"
     fit-margin-right="0"
     fit-margin-bottom="0"
     inkscape:window-width="1366"
     inkscape:window-height="706"
     inkscape:window-x="-8"
     inkscape:window-y="-8"
     inkscape:window-maximized="1" />
  <metadata
     id="metadata5">
    <rdf:RDF>
      <cc:Work
         rdf:about="">
        <dc:format>image/svg+xml</dc:format>
        <dc:type
           rdf:resource="http://purl.org/dc/dcmitype/StillImage" />
        <dc:title></dc:title>
      </cc:Work>
    </rdf:RDF>
  </metadata>
  <g
     inkscape:label="Layer 1"
     inkscape:groupmode="layer"
     id="layer1"
     transform="translate(-99.894561,-62.442318)">
    <path
       style="fill:#000000;stroke-width:0.191927"
       d="m 103.13537,74.769306 c -0.19243,-0.172056 0.0701,-0.617443 0.36394,-0.617443 0.14677,0 0.52518,-0.364519 0.84092,-0.810042 l 0.57408,-0.810042 1.53546,-0.0067 1.53543,-0.0067 0.33404,0.626304 c 0.18371,0.344466 0.56597,0.762193 0.84948,0.92828 0.2835,0.166089 0.51544,0.415086 0.51544,0.553329 0,0.203563 -0.611,0.25135 -3.21373,0.25135 -1.76755,0 -3.26832,-0.04882 -3.33506,-0.108483 z m 1.61191,-2.779573 c 0.43938,-0.366006 0.87744,-2.325497 0.87744,-3.924923 v -0.809256 h 0.81189 0.8119 v 1.099303 c 0,1.58614 0.40903,3.619224 0.72816,3.619224 0.1445,0 0.31918,0.08167 0.38817,0.181482 0.0805,0.116478 -0.61956,0.181482 -1.95452,0.181482 -2.05867,0 -2.07571,-0.0036 -1.66304,-0.347312 z m -0.0393,-5.101998 c -0.0799,-0.115588 0.0412,-0.243208 0.28511,-0.300214 0.23324,-0.05454 0.37405,-0.171541 0.3129,-0.260008 -0.0612,-0.08847 0.44763,-0.160849 1.13062,-0.160849 0.77616,0 1.19475,0.06805 1.11634,0.181482 -0.0689,0.09981 0.0246,0.181482 0.20791,0.181482 0.18334,0 0.29557,0.102083 0.2494,0.226852 -0.11044,0.298463 -3.10444,0.417466 -3.30228,0.131255 z m 0.34621,-1.743417 c -0.48438,-0.858107 -0.4681,-1.186648 0.0401,-0.80952 0.21222,0.157479 0.32933,0.16114 0.43139,0.01349 0.077,-0.111467 0.27259,-0.157201 0.43455,-0.101633 0.17479,0.05997 0.24059,0.02309 0.16191,-0.09074 -0.0729,-0.105476 -0.26795,-0.145318 -0.43345,-0.08854 -0.1844,0.06327 -0.26812,0.01536 -0.21625,-0.123739 0.11292,-0.302912 1.81539,-0.302912 1.92832,0 0.0519,0.139107 -0.0318,0.18701 -0.21628,0.123739 -0.16548,-0.05678 -0.35308,-0.02773 -0.41688,0.06457 -0.0651,0.09425 0.23569,0.150064 0.68637,0.127328 l 0.80235,-0.04048 -0.55466,0.88301 c -0.52051,0.82863 -0.60467,0.882714 -1.36656,0.878211 -0.75883,-0.0045 -0.84254,-0.05911 -1.28091,-0.835696 z m 1.1173,-1.815935 c -0.0714,-0.06383 -0.0803,-0.187662 -0.0198,-0.275183 0.12974,-0.187692 0.4879,-0.02585 0.4879,0.220466 0,0.195109 -0.27511,0.227268 -0.4681,0.05471 z"
       id="path2474" />
  </g>
</svg>
