<?xml version="1.0" encoding="UTF-8" standalone="no"?>
<svg
   xmlns:dc="http://purl.org/dc/elements/1.1/"
   xmlns:cc="http://creativecommons.org/ns#"
   xmlns:rdf="http://www.w3.org/1999/02/22-rdf-syntax-ns#"
   xmlns:svg="http://www.w3.org/2000/svg"
   xmlns="http://www.w3.org/2000/svg"
   xmlns:sodipodi="http://sodipodi.sourceforge.net/DTD/sodipodi-0.dtd"
   xmlns:inkscape="http://www.inkscape.org/namespaces/inkscape"
   width="48"
   height="48.00005"
   viewBox="0 0 12.7 12.700013"
   version="1.1"
   id="svg8"
   inkscape:version="1.0 (4035a4fb49, 2020-05-01)"
   sodipodi:docname="piece3.svg">
  <defs
     id="defs2" />
  <sodipodi:namedview
     id="base"
     pagecolor="#ffffff"
     bordercolor="#666666"
     borderopacity="1.0"
     inkscape:pageopacity="0.0"
     inkscape:pageshadow="2"
     inkscape:zoom="0.96102398"
     inkscape:cx="22.445754"
     inkscape:cy="57.739413"
     inkscape:document-units="mm"
     inkscape:current-layer="layer1"
     inkscape:document-rotation="0"
     showgrid="false"
     units="px"
     fit-margin-top="0"
     fit-margin-left="0"
     fit-margin-right="0"
     fit-margin-bottom="0"
     inkscape:window-width="1366"
     inkscape:window-height="706"
     inkscape:window-x="-8"
     inkscape:window-y="-8"
     inkscape:window-maximized="1" />
  <metadata
     id="metadata5">
    <rdf:RDF>
      <cc:Work
         rdf:about="">
        <dc:format>image/svg+xml</dc:format>
        <dc:type
           rdf:resource="http://purl.org/dc/dcmitype/StillImage" />
        <dc:title></dc:title>
      </cc:Work>
    </rdf:RDF>
  </metadata>
  <g
     inkscape:label="Layer 1"
     inkscape:groupmode="layer"
     id="layer1"
     transform="translate(-99.894561,-62.442318)">
    <path
       style="fill:#000000;stroke-width:0.187767"
       d="m 102.54041,74.38013 c 0,-0.144183 0.17461,-0.296134 0.38802,-0.337668 0.21342,-0.04154 0.66317,-0.399172 0.99943,-0.79475 l 0.61142,-0.719234 h 1.58086 1.58087 l 0.60848,0.71641 c 0.33466,0.394026 0.79993,0.753671 1.03395,0.799213 0.234,0.04555 0.3826,0.178735 0.33021,0.295984 -0.0724,0.162013 -0.9399,0.223863 -3.61424,0.257689 -3.12195,0.03949 -3.519,0.01493 -3.519,-0.217644 z m 1.52359,-2.175617 c 0,-0.0891 0.13339,-0.161984 0.29644,-0.161984 0.32258,0 0.79012,-1.422396 0.79423,-2.416263 0.002,-0.319232 0.0631,-0.853767 0.13731,-1.187856 0.12366,-0.556803 0.1939,-0.607437 0.84265,-0.607437 h 0.70774 l 0.14441,1.255368 c 0.21844,1.899207 0.54082,2.956188 0.90162,2.956188 0.17108,0 0.31105,0.07289 0.31105,0.161984 0,0.09662 -0.83435,0.161982 -2.06773,0.161982 -1.23338,0 -2.06772,-0.06536 -2.06772,-0.161982 z m 0.36275,-4.643511 c -0.2538,-0.188893 -0.15666,-0.377961 0.19423,-0.377961 0.18663,0 0.2788,-0.07289 0.20481,-0.161982 -0.0845,-0.101757 0.40105,-0.161984 1.30593,-0.161984 0.79247,0 1.38628,0.06523 1.32003,0.14501 -0.0662,0.07976 0.0322,0.188578 0.2186,0.24183 0.18647,0.05325 0.27807,0.170228 0.20356,0.259948 -0.14896,0.179384 -3.21432,0.228416 -3.44716,0.05514 z m 0.65675,-0.967624 c 0.19359,-0.0587 0.17903,-0.244084 -0.0585,-0.745179 -0.37175,-0.784136 -0.21339,-0.926561 1.03454,-0.930439 1.38638,-0.0043 1.50385,0.08317 1.14063,0.849313 -0.25224,0.532077 -0.25993,0.690083 -0.0387,0.7946 0.15618,0.07377 -0.29129,0.12598 -1.02975,0.120151 -0.71826,-0.0057 -1.18996,-0.04547 -1.04822,-0.08845 z m 0.44968,-1.947359 c 0.38472,-0.115533 0.33926,-0.702637 -0.0544,-0.702637 -0.17957,0 -0.32648,-0.109338 -0.32648,-0.242974 0,-0.133636 0.14691,-0.242974 0.32648,-0.242974 0.17956,0 0.32649,-0.109338 0.32649,-0.242974 0,-0.133637 0.15739,-0.242975 0.34977,-0.242975 0.22148,0 0.30381,0.08911 0.22449,0.242975 -0.0852,0.165269 0.0118,0.242974 0.30318,0.242974 0.23577,0 0.42849,0.10928 0.42849,0.242974 0,0.133636 -0.18501,0.242974 -0.41113,0.242974 -0.49238,0 -0.51071,0.512969 -0.0242,0.677043 0.18024,0.06078 -0.0635,0.109474 -0.54414,0.108699 -0.47884,-7.96e-4 -0.74819,-0.03817 -0.59855,-0.0831 z"
       id="path2490" />
  </g>
</svg>
