<?xml version="1.0" encoding="UTF-8" standalone="no"?>
<svg
   xmlns:dc="http://purl.org/dc/elements/1.1/"
   xmlns:cc="http://creativecommons.org/ns#"
   xmlns:rdf="http://www.w3.org/1999/02/22-rdf-syntax-ns#"
   xmlns:svg="http://www.w3.org/2000/svg"
   xmlns="http://www.w3.org/2000/svg"
   xmlns:sodipodi="http://sodipodi.sourceforge.net/DTD/sodipodi-0.dtd"
   xmlns:inkscape="http://www.inkscape.org/namespaces/inkscape"
   width="48"
   height="48.00005"
   viewBox="0 0 12.7 12.700013"
   version="1.1"
   id="svg8"
   inkscape:version="1.0 (4035a4fb49, 2020-05-01)"
   sodipodi:docname="piece2.svg">
  <defs
     id="defs2" />
  <sodipodi:namedview
     id="base"
     pagecolor="#ffffff"
     bordercolor="#666666"
     borderopacity="1.0"
     inkscape:pageopacity="0.0"
     inkscape:pageshadow="2"
     inkscape:zoom="0.96102398"
     inkscape:cx="22.445754"
     inkscape:cy="57.739413"
     inkscape:document-units="mm"
     inkscape:current-layer="layer1"
     inkscape:document-rotation="0"
     showgrid="false"
     units="px"
     fit-margin-top="0"
     fit-margin-left="0"
     fit-margin-right="0"
     fit-margin-bottom="0"
     inkscape:window-width="1366"
     inkscape:window-height="706"
     inkscape:window-x="-8"
     inkscape:window-y="-8"
     inkscape:window-maximized="1" />
  <metadata
     id="metadata5">
    <rdf:RDF>
      <cc:Work
         rdf:about="">
        <dc:format>image/svg+xml</dc:format>
        <dc:type
           rdf:resource="http://purl.org/dc/dcmitype/StillImage" />
        <dc:title></dc:title>
      </cc:Work>
    </rdf:RDF>
  </metadata>
  <g
     inkscape:label="Layer 1"
     inkscape:groupmode="layer"
     id="layer1"
     transform="translate(-99.894561,-62.442318)">
    <path
       style="fill:#000000;stroke-width:0.204747"
       d="m 103.0696,74.627094 c 0,-0.33138 0.73865,-0.73818 0.96968,-0.53405 0.0856,0.0757 0.12772,0.051 0.0935,-0.0549 -0.0341,-0.10585 0.15566,-0.56055 0.4219,-1.01043 l 0.48409,-0.81797 h 1.60276 c 1.54156,0 1.61247,0.0202 1.85723,0.52927 0.33491,0.69653 0.90061,1.28546 1.39565,1.45294 0.2196,0.0743 0.35857,0.24331 0.30879,0.37557 -0.0662,0.17612 -1.03297,0.25463 -3.61206,0.29336 -3.00091,0.045 -3.52156,0.0105 -3.52156,-0.23381 z m 2.34151,-2.7517 c 0.62894,-0.0388 1.65811,-0.0388 2.28706,0 0.62894,0.0389 0.11435,0.0707 -1.14354,0.0707 -1.25787,0 -1.77246,-0.0318 -1.14352,-0.0707 z m -0.0767,-0.77231 c 0.0757,-0.2911 0.19869,-1.02727 0.27346,-1.63594 0.12772,-1.03975 0.10778,-1.10667 -0.32994,-1.10667 -0.58053,0 -0.61436,-0.38665 -0.0453,-0.51814 0.25007,-0.0578 0.37307,-0.20653 0.30342,-0.36691 -0.091,-0.20963 0.1307,-0.26973 0.99523,-0.26973 0.84357,0 1.11239,0.0698 1.11239,0.2887 0,0.15878 0.14702,0.28869 0.32672,0.28869 0.17969,0 0.32672,0.12991 0.32672,0.2887 0,0.16038 -0.19362,0.28869 -0.43563,0.28869 -0.30813,0 -0.43407,0.12674 -0.43031,0.43305 0.005,0.40964 0.30986,1.76675 0.56198,2.50203 0.10197,0.29736 -0.0551,0.33681 -1.34036,0.33681 h -1.45587 z m 0.73007,-4.22568 c 0.26954,-0.0459 0.71063,-0.0459 0.98017,0 0.26955,0.0459 0.049,0.0834 -0.49007,0.0834 -0.53911,0 -0.75964,-0.0375 -0.4901,-0.0834 z m -0.62114,-0.77837 c -0.42282,-0.976408 0.35144,-2.357688 1.32157,-2.357688 0.43651,0 0.50163,0.586172 0.10783,0.970664 -0.21346,0.208421 -0.32111,0.438141 -0.23922,0.510498 0.0819,0.07238 0.3062,-0.06692 0.49849,-0.309475 0.42062,-0.530638 0.72088,-0.255098 0.7261,0.666341 0.004,0.77786 -0.34509,1.04893 -1.35249,1.04893 -0.70805,0 -0.86749,-0.0794 -1.06228,-0.52927 z m 0.82673,-2.673229 c -0.20328,-0.179616 0.0424,-0.45432 0.40626,-0.45432 0.17262,0 0.31387,0.129918 0.31387,0.288699 0,0.289901 -0.45981,0.395647 -0.72013,0.165621 z"
       id="path2410" />
  </g>
</svg>
