<?xml version="1.0" encoding="UTF-8" standalone="no"?>
<svg
   xmlns:dc="http://purl.org/dc/elements/1.1/"
   xmlns:cc="http://creativecommons.org/ns#"
   xmlns:rdf="http://www.w3.org/1999/02/22-rdf-syntax-ns#"
   xmlns:svg="http://www.w3.org/2000/svg"
   xmlns="http://www.w3.org/2000/svg"
   xmlns:sodipodi="http://sodipodi.sourceforge.net/DTD/sodipodi-0.dtd"
   xmlns:inkscape="http://www.inkscape.org/namespaces/inkscape"
   sodipodi:docname="wp.svg"
   inkscape:version="1.0 (4035a4fb49, 2020-05-01)"
   id="svg8"
   version="1.1"
   viewBox="0 0 11.906251 11.90625"
   height="45"
   width="45">
  <defs
     id="defs2" />
  <sodipodi:namedview
     inkscape:window-maximized="1"
     inkscape:window-y="-8"
     inkscape:window-x="-8"
     inkscape:window-height="706"
     inkscape:window-width="1366"
     units="px"
     fit-margin-bottom="0"
     fit-margin-right="0"
     fit-margin-left="0"
     fit-margin-top="0"
     showgrid="false"
     inkscape:document-rotation="0"
     inkscape:current-layer="layer1"
     inkscape:document-units="mm"
     inkscape:cy="24.079952"
     inkscape:cx="-52.553957"
     inkscape:zoom="1.0289025"
     inkscape:pageshadow="2"
     inkscape:pageopacity="0.0"
     borderopacity="1.0"
     bordercolor="#666666"
     pagecolor="#ffffff"
     id="base" />
  <metadata
     id="metadata5">
    <rdf:RDF>
      <cc:Work
         rdf:about="">
        <dc:format>image/svg+xml</dc:format>
        <dc:type
           rdf:resource="http://purl.org/dc/dcmitype/StillImage" />
        <dc:title></dc:title>
      </cc:Work>
    </rdf:RDF>
  </metadata>
  <g
     transform="translate(-119.73823,-31.76277)"
     id="layer1"
     inkscape:groupmode="layer"
     inkscape:label="Layer 1">
    <path
       id="path2702"
       d="m 126.35164,36.636413 c -0.3775,-0.0013 -0.79486,0.03401 -1.16386,-0.05888 -3.16346,-0.796421 1.66485,-4.144075 1.62942,-1.056881 -0.004,0.31988 -0.16133,0.635777 -0.27125,0.930541 l 0.77731,0.370445 v 0.370447 l -2.91486,0.370445 1.63932,0.482784 1.46985,2.666005 c -0.85028,0.282058 -3.34176,0.567765 -3.88647,-0.185221 m 1.36027,-5.927134 -0.38865,0.555668 m -0.38865,2.222676 -0.58297,-0.185223 0.7773,-0.555668 m 2.13755,1.111337 -0.19431,0.185222 m -1.5546,0.185223 c -0.74879,2.104224 -0.23163,2.407899 1.94323,2.407899 m -2.91484,0.740891 -1.5546,1.667006 4.66377,0.370446 1.56989,-0.405453 -1.37557,-1.631999 m -3.88647,1.111337 h 4.46945"
       style="fill:none;stroke:#515151;stroke-width:0.189718" />
  </g>
</svg>
